<svg width="25" height="25" viewBox="0 0 25 25" fill="none" xmlns="http://www.w3.org/2000/svg">
<g clip-path="url(#clip0_244_4231)">
<path fill-rule="evenodd" clip-rule="evenodd" d="M13.7744 5.49042V6.34867H10.9411V5.49032C8.16556 6.05362 5.97931 8.23978 5.41588 11.0153H6.27409V13.8486H5.41585C5.97922 16.6241 8.1655 18.8104 10.9411 19.3737V18.5153H13.7744V19.3736C16.5498 18.8101 18.7358 16.624 19.2992 13.8486H18.4404V11.0153H19.2991C18.7357 8.23994 16.5497 6.05387 13.7744 5.49042ZM13.7744 2.61573C18.1173 3.23708 21.5525 6.67231 22.1737 11.0153H24.1071V13.8486H22.1737C21.5525 18.1915 18.1173 21.6268 13.7744 22.2481V24.1819H10.9411V22.2482C6.59786 21.6271 3.16242 18.1918 2.54118 13.8486H0.607422V11.0153H2.54118C3.16242 6.67209 6.59787 3.23674 10.9411 2.61564V0.682007H13.7744V2.61573Z" fill="#454554"/>
<circle cx="12.3574" cy="12.4318" r="2.5" fill="#454554"/>
</g>
<defs>
<clipPath id="clip0_244_4231">
<rect width="24" height="24" fill="white" transform="translate(0.357422 0.431763)"/>
</clipPath>
</defs>
</svg>
