<svg xmlns="http://www.w3.org/2000/svg" width="151" height="28" viewBox="0 0 151 28" fill="none">
  <path d="M6.9789 9.23047C8.51889 9.23047 9.46658 9.89736 9.46658 11.0162V11.7532C9.46658 12.8764 8.51889 13.5389 6.9789 13.5389C5.43892 13.5389 4.45613 12.872 4.45613 11.7532V11.0162C4.45613 9.89297 5.43892 9.23047 6.9789 9.23047H1.23576C1.02516 9.72186 0.884766 10.2484 0.884766 10.7354V12.0296C0.884766 14.0961 2.88105 16.654 6.9789 16.654C11.0768 16.654 13.0379 14.0961 13.0379 12.0296V10.7354C13.0379 10.244 12.9326 9.71747 12.722 9.23047H6.97452H6.9789ZM9.64207 23.5598C8.06699 23.5598 7.365 23.279 7.365 22.3357C7.365 21.3924 8.06699 21.1116 9.64207 21.1116H19.1716C20.7116 21.1116 21.4135 21.3924 21.4135 22.3357C21.4135 23.279 20.7116 23.5598 19.1716 23.5598H9.64207ZM9.60697 17.6763C5.61441 17.6763 3.61813 19.2865 3.61813 22.3357C3.61813 25.385 5.61441 26.9952 9.60697 26.9952H19.1716C23.1641 26.9952 25.1604 25.385 25.1604 22.3357C25.1604 19.2865 23.1641 17.6763 19.1716 17.6763H9.60697Z" fill="#14171F"/>
  <path d="M6.97817 6.11133C10.0976 6.11133 11.9886 7.61622 12.7257 9.23079H13.7085V6.11133H6.98255H6.97817ZM1.23502 9.23079C1.93701 7.6206 3.82799 6.11133 6.98255 6.11133H0.427734V9.23079H1.23502Z" fill="#14171F"/>
  <path d="M6.978 6.11133C3.82344 6.11133 1.93246 7.61622 1.23047 9.23079H12.7211C11.9841 7.6206 10.0931 6.11133 6.97361 6.11133H6.978Z" fill="#14171F"/>
  <path d="M14.1258 2.71094V6.14629H15.3148V11.3673C15.3148 9.19556 16.574 8.31807 18.7852 8.31807H18.8905V5.9006C18.8905 3.76392 17.4207 2.71094 15.249 2.71094H14.1258ZM2.8457 2.81624V5.30391H11.2169V2.81624H2.8457Z" fill="#14171F"/>
  <path d="M21.4485 8.31836H18.8906V11.7888H21.4485V8.31836Z" fill="#14171F"/>
  <path d="M18.7849 8.31836C16.578 8.31836 15.3145 9.19584 15.3145 11.3676V16.8695H18.8858V8.32275H18.7805L18.7849 8.31836Z" fill="#14171F"/>
  <path d="M25.0536 16.8652V11.7846H21.4471V16.8652H25.0536ZM20.1484 2.08398V5.55444H21.4427V8.32291H25.0492V5.27365C25.0492 3.13697 23.6145 2.08398 21.4427 2.08398H20.1484Z" fill="#14171F"/>
  <path d="M25.0537 8.31836H21.4473V11.7888H25.0537V8.31836Z" fill="#14171F"/>
  <path d="M35.9539 23.4558C34.6947 23.4558 33.8523 22.9995 33.8523 22.1264C33.8523 21.2533 34.6947 20.8321 35.9539 20.8321H46.3916C47.6507 20.8321 48.4931 21.2533 48.4931 22.1264C48.4931 22.9995 47.6507 23.4558 46.3916 23.4558H35.9539ZM35.8837 17.5371C31.856 17.5371 30.0703 19.2877 30.0703 22.1264C30.0703 24.965 31.856 26.7507 35.8837 26.7507H46.4617C50.4543 26.7507 52.2444 25.0001 52.2444 22.1264C52.2444 19.2526 50.4587 17.5371 46.4617 17.5371H35.8837Z" fill="#14171F"/>
  <path d="M43.0297 12.9082C43.0297 14.9747 42.1522 16.3743 39.9805 16.3743H53.6078V12.9082H43.0297Z" fill="#14171F"/>
  <path d="M43.0262 11.6484H39.2793V12.9076H43.0262V11.6484Z" fill="#14171F"/>
  <path d="M28.7012 12.9082V16.3743H39.9813C42.153 16.3743 43.0305 14.9747 43.0305 12.9082H28.7012Z" fill="#14171F"/>
  <path d="M34.1277 6.28692H51.2957V2.85156H34.1277V6.28692ZM34.1277 6.28692H30.3457V8.3534C30.3457 10.5252 31.3987 11.6484 33.5705 11.6484H51.6467V8.18229H34.1321V6.29131L34.1277 6.28692Z" fill="#14171F"/>
  <path d="M34.1277 2.85156H30.3457V6.28692H34.1277V2.85156Z" fill="#14171F"/>
  <path d="M78.3058 11.6484H75.6777V15.2549H78.3058V11.6484Z" fill="#14171F"/>
  <path d="M70.6016 2.99267V6.59914H71.931V14.6237C71.931 12.803 73.4358 11.6447 75.6076 11.6447H75.6778V6.03754C75.6778 3.86577 74.208 2.98828 72.0363 2.98828H70.6016V2.99267Z" fill="#14171F"/>
  <path d="M75.6064 11.6484C73.4346 11.6484 71.9297 12.8067 71.9297 14.6275V27.0308H75.6765V11.6484H75.6064Z" fill="#14171F"/>
  <path d="M82.0904 27.0273V15.2558H78.3084V27.0273H82.0904ZM77.0098 2.57617V6.18264H78.3041V11.6494H82.086V5.76583C82.086 3.62915 80.6162 2.57617 78.4094 2.57617H77.0098Z" fill="#14171F"/>
  <path d="M82.0866 11.6484H78.3047V15.2549H82.0866V11.6484Z" fill="#14171F"/>
  <path d="M57.1094 8.21389V20.4066C57.1094 22.5783 58.0922 23.7366 60.2288 23.7366H69.8987V20.1301H60.8606V8.21828H57.1138L57.1094 8.21389ZM60.8562 4.60742V8.21389H68.3544V4.60742H60.8562Z" fill="#14171F"/>
  <path d="M60.8562 4.60742H57.1094V8.21389H60.8562V4.60742Z" fill="#14171F"/>
  <path d="M95.2606 10.9478C95.2606 12.3825 94.4533 13.6812 93.3345 14.5192C94.1769 15.151 95.2255 15.5371 96.2434 15.5371H101.043V11.9306H96.9102C95.5458 11.9306 95.265 11.0882 95.265 10.3906V10.9522L95.2606 10.9478ZM93.4749 23.6319C91.7594 23.6319 91.0574 23.1054 91.0574 22.1621C91.0574 21.2188 91.7594 20.7274 93.4749 20.7274H102.232C103.948 20.7274 104.65 21.2539 104.65 22.1621C104.65 23.0703 103.948 23.6319 102.232 23.6319H93.4749ZM93.4398 17.2921C89.4472 17.2921 87.3105 19.1479 87.3105 22.1621C87.3105 25.1763 89.4472 27.0672 93.4398 27.0672H102.232C106.225 27.0672 108.397 25.2114 108.397 22.1621C108.397 19.1128 106.225 17.2921 102.232 17.2921H93.4398Z" fill="#14171F"/>
  <path d="M91.4051 10.3852C91.4051 11.0872 91.1243 11.9252 89.795 11.9252H85.5918V15.5317H90.4618C91.4797 15.5317 92.4932 15.1456 93.3356 14.5138C92.2124 13.6714 91.4095 12.3771 91.4095 10.9425V10.3809L91.4051 10.3852Z" fill="#14171F"/>
  <path d="M91.4043 7.0957V10.9479C91.4043 12.3826 92.2116 13.6812 93.3304 14.5192C94.4843 13.6768 95.2565 12.3826 95.2565 10.9479V7.0957H91.4043Z" fill="#14171F"/>
  <path d="M102.303 2.15478V5.76125H104.229V10.9472C104.229 8.81051 105.699 7.75752 107.905 7.75752H107.976V5.34005C107.976 3.20337 106.506 2.15039 104.334 2.15039H102.303V2.15478Z" fill="#14171F"/>
  <path d="M110.57 7.75781H107.977V11.3643H110.57V7.75781Z" fill="#14171F"/>
  <path d="M107.905 7.75781C105.698 7.75781 104.229 8.8108 104.229 10.9475V16.2738H107.975V7.75781H107.905Z" fill="#14171F"/>
  <path d="M95.2622 7.09551H100.553V3.66016H95.2622V7.09551ZM91.41 7.09551V3.66016H85.9082V7.09551H91.41Z" fill="#14171F"/>
  <path d="M95.2565 3.66016H91.4043V7.09551H95.2565V3.66016Z" fill="#14171F"/>
  <path d="M114.453 23.9468V5.79599C114.453 4.54996 115.116 3.39607 116.199 2.78622C118.705 1.38224 123.592 -0.535068 128.761 1.94383C132.034 3.51453 134.271 5.445 138.079 5.62927H138.123C141.076 5.77406 144.024 5.24756 146.745 4.09367L149.013 3.13282C149.763 2.81254 150.566 3.46627 150.408 4.26917C149.614 8.38458 148.627 12.1051 145.687 15.2377C143.379 17.6991 140.352 19.4979 137.07 20.3008C133.363 21.2046 129.476 20.9721 125.764 21.8759C122.868 22.5823 120.109 23.8196 117.709 25.5745C116.353 26.5661 114.453 25.6316 114.453 23.9512V23.9468Z" fill="#FF005E"/>
</svg>