<svg width="25" height="25" viewBox="0 0 25 25" fill="none" xmlns="http://www.w3.org/2000/svg">
<path fill-rule="evenodd" clip-rule="evenodd" d="M12.3527 17.0132C16.6827 17.0132 20.1928 13.5031 20.1928 9.17317C20.1928 4.84323 16.6827 1.33313 12.3527 1.33313C8.0228 1.33313 4.5127 4.84323 4.5127 9.17317C4.5127 13.5031 8.0228 17.0132 12.3527 17.0132ZM12.3525 13.1732C14.5617 13.1732 16.3525 11.3824 16.3525 9.17322C16.3525 6.96408 14.5617 5.17322 12.3525 5.17322C10.1434 5.17322 8.35254 6.96408 8.35254 9.17322C8.35254 11.3824 10.1434 13.1732 12.3525 13.1732Z" fill="#454554"/>
<path d="M14.119 22.5093C13.3666 23.9232 11.3403 23.9232 10.5879 22.5093L5.6844 13.2947L19.0225 13.2947L14.119 22.5093Z" fill="#454554"/>
</svg>
