<svg width="25" height="25" viewBox="0 0 25 25" fill="none" xmlns="http://www.w3.org/2000/svg">
<path fill-rule="evenodd" clip-rule="evenodd" d="M12.3579 22.4318C17.8808 22.4318 22.3579 17.9546 22.3579 12.4318C22.3579 6.90892 17.8808 2.43176 12.3579 2.43176C6.83506 2.43176 2.35791 6.90892 2.35791 12.4318C2.35791 17.9546 6.83506 22.4318 12.3579 22.4318ZM11.4054 7.79268H9.50065V10.6498H11.4054V7.79268ZM13.3106 7.79277H15.2154V10.6499H13.3106V7.79277ZM9.44171 13.52C8.66827 14.2934 8.23376 15.3424 8.23376 16.4363H9.73376C9.73376 15.7403 10.0102 15.0728 10.5024 14.5807C10.9945 14.0885 11.662 13.812 12.358 13.812C13.054 13.812 13.7214 14.0885 14.2136 14.5807C14.7057 15.0728 14.9822 15.7403 14.9822 16.4363H16.4822C16.4822 15.3424 16.0477 14.2934 15.2742 13.52C14.5008 12.7466 13.4518 12.312 12.358 12.312C11.2642 12.312 10.2152 12.7466 9.44171 13.52Z" fill="#FF005E"/>
</svg>
